<svg width="34" height="34" viewBox="0 0 34 34" fill="none" xmlns="http://www.w3.org/2000/svg">
<path d="M9.5625 7.4375H11.6875V9.5625H9.5625V7.4375Z" fill="#068BF5"/>
<path d="M9.5625 11.6875H11.6875V13.8125H9.5625V11.6875Z" fill="#068BF5"/>
<path d="M9.5625 15.9375H11.6875V18.0625H9.5625V15.9375Z" fill="#068BF5"/>
<path d="M9.5625 20.1875H11.6875V22.3125H9.5625V20.1875Z" fill="#068BF5"/>
<path d="M13.8125 7.4375H15.9375V9.5625H13.8125V7.4375Z" fill="#068BF5"/>
<path d="M22.3125 15.9375H24.4375V18.0625H22.3125V15.9375Z" fill="#068BF5"/>
<path d="M22.3125 11.6875H24.4375V13.8125H22.3125V11.6875Z" fill="#068BF5"/>
<path d="M13.8125 11.6875H15.9375V13.8125H13.8125V11.6875Z" fill="#068BF5"/>
<path d="M22.3125 20.1875H24.4375V22.3125H22.3125V20.1875Z" fill="#068BF5"/>
<path d="M13.8125 15.9375H15.9375V18.0625H13.8125V15.9375Z" fill="#068BF5"/>
<path d="M22.3125 24.4375H24.4375V26.5625H22.3125V24.4375Z" fill="#068BF5"/>
<path d="M13.8125 20.1875H15.9375V22.3125H13.8125V20.1875Z" fill="#068BF5"/>
<path d="M29.75 28.6875H28.6875V8.5C28.6875 8.21821 28.5756 7.94796 28.3763 7.7487C28.177 7.54944 27.9068 7.4375 27.625 7.4375H20.1875V4.25C20.1875 3.96821 20.0756 3.69796 19.8763 3.4987C19.677 3.29944 19.4068 3.1875 19.125 3.1875H6.375C6.09321 3.1875 5.82296 3.29944 5.6237 3.4987C5.42444 3.69796 5.3125 3.96821 5.3125 4.25V28.6875H4.25C3.96821 28.6875 3.69796 28.7994 3.4987 28.9987C3.29944 29.198 3.1875 29.4682 3.1875 29.75C3.1875 30.0318 3.29944 30.302 3.4987 30.5013C3.69796 30.7006 3.96821 30.8125 4.25 30.8125H29.75C30.0318 30.8125 30.302 30.7006 30.5013 30.5013C30.7006 30.302 30.8125 30.0318 30.8125 29.75C30.8125 29.4682 30.7006 29.198 30.5013 28.9987C30.302 28.7994 30.0318 28.6875 29.75 28.6875ZM7.4375 5.3125H18.0625V25.5C18.0625 25.7818 18.1744 26.052 18.3737 26.2513C18.573 26.4506 18.8432 26.5625 19.125 26.5625C19.4068 26.5625 19.677 26.4506 19.8763 26.2513C20.0756 26.052 20.1875 25.7818 20.1875 25.5V9.5625H26.5625V28.6875H15.9375V25.5C15.9375 25.2182 15.8256 24.948 15.6263 24.7487C15.427 24.5494 15.1568 24.4375 14.875 24.4375H10.625C10.3432 24.4375 10.073 24.5494 9.8737 24.7487C9.67444 24.948 9.5625 25.2182 9.5625 25.5V28.6875H7.4375V5.3125ZM13.8125 28.6875H11.6875V26.5625H13.8125V28.6875Z" fill="#068BF5"/>
</svg>
