<svg width="34" height="34" viewBox="0 0 34 34" fill="none" xmlns="http://www.w3.org/2000/svg">
<path d="M29.75 8.50001L29.75 11.75C29.75 12.2214 29.75 12.4571 29.6036 12.6036C29.4571 12.75 29.2214 12.75 28.75 12.75L21.25 12.75L21.25 29.75L17 28.3333L12.75 29.75L8.5 28.3333L4.25 29.75L4.25 8.25001C4.25 6.36439 4.25 5.42159 4.83579 4.8358C5.42157 4.25001 6.36438 4.25001 8.25 4.25001L25.5 4.25001C26.6635 4.25001 27.2453 4.25001 27.7143 4.40922C28.5975 4.70902 29.291 5.40252 29.5908 6.2857C29.75 6.75471 29.75 7.33648 29.75 8.50001Z" fill="#00A0C4" fill-opacity="0.03"/>
<path d="M25.5 4.25001L8.25 4.25001C6.36438 4.25001 5.42157 4.25001 4.83579 4.8358C4.25 5.42158 4.25 6.36439 4.25 8.25001L4.25 29.75L8.5 28.3333L12.75 29.75L17 28.3333L21.25 29.75L21.25 12.75M25.5 4.25001C24.3365 4.25001 23.7547 4.25001 23.2857 4.40922C22.4025 4.70902 21.709 5.40252 21.4092 6.2857C21.25 6.75471 21.25 7.33648 21.25 8.50001L21.25 12.75M25.5 4.25001C26.6635 4.25001 27.2453 4.25001 27.7143 4.40922C28.5975 4.70902 29.291 5.40252 29.5908 6.2857C29.75 6.75471 29.75 7.33648 29.75 8.50001L29.75 11.75C29.75 12.2214 29.75 12.4571 29.6036 12.6036C29.4571 12.75 29.2214 12.75 28.75 12.75L21.25 12.75" stroke="#00C4BA" stroke-width="2"/>
<path d="M9.9165 9.9165L15.5832 9.9165" stroke="#00C4BA" stroke-width="2" stroke-linecap="round"/>
<path d="M11.3335 15.5835H9.91683" stroke="#00C4BA" stroke-width="2" stroke-linecap="round"/>
<path d="M9.9165 21.25L14.1665 21.25" stroke="#00C4BA" stroke-width="2" stroke-linecap="round"/>
</svg>
