<svg width="34" height="34" viewBox="0 0 34 34" fill="none" xmlns="http://www.w3.org/2000/svg">
<rect x="5.6665" y="12.75" width="24.0833" height="17" fill="#FF3FEC" fill-opacity="0.08"/>
<path d="M24.4375 31.1667H10.9792C7.27813 31.1667 4.25 28.1385 4.25 24.4375V10.9792C4.25 7.27813 7.27813 4.25 10.9792 4.25H18.8299H24.4375C28.1385 4.25 31.1667 7.27813 31.1667 10.9792V24.4375C31.1667 28.1385 28.1385 31.1667 24.4375 31.1667ZM6.49306 13.2222V24.4375C6.49306 26.9049 8.51181 28.9236 10.9792 28.9236H24.4375C26.9049 28.9236 28.9236 26.9049 28.9236 24.4375V13.2222H6.49306ZM23.8767 10.9792H28.9236C28.9236 8.51181 26.9049 6.49306 24.4375 6.49306H20.9608L23.8767 10.9792ZM16.026 10.9792H21.1851L18.1569 6.49306H13.1101L16.026 10.9792ZM6.49306 10.9792H13.3344L10.4184 6.49306C8.17535 6.82951 6.49306 8.73611 6.49306 10.9792ZM16.5868 19.7271V22.5309L18.942 21.1851L16.5868 19.7271ZM15.4653 25.559C14.9045 25.559 14.3438 24.9983 14.3438 24.4375V17.7083C14.3438 17.2597 14.5681 16.9233 14.9045 16.699C15.241 16.4747 15.6896 16.4747 16.026 16.699L21.6337 20.0635C21.9701 20.2878 22.1944 20.6243 22.1944 21.0729C22.1944 21.5215 21.9701 21.858 21.6337 22.0823L16.026 25.4469C15.9139 25.559 15.6896 25.559 15.4653 25.559Z" fill="#FF3FEC"/>
</svg>
