<svg width="34" height="34" viewBox="0 0 34 34" fill="none" xmlns="http://www.w3.org/2000/svg">
<path d="M19.5859 8.7633C18.9808 8.15964 18.1775 7.82715 17.3225 7.82715H7.4523C5.68652 7.82715 4.25 9.26366 4.25 11.0294V27.9641C4.25 29.7295 5.68652 31.1664 7.4523 31.1664H22.2421C24.0075 31.1664 25.4444 29.7295 25.4444 27.9641V15.9399C25.4444 15.0959 25.1013 14.27 24.5037 13.6737L19.5859 8.7633ZM23.5555 27.9641C23.5555 28.6882 22.9662 29.2775 22.2421 29.2775H7.4523C6.72828 29.2775 6.13891 28.6882 6.13891 27.9641V11.0294C6.13891 10.3054 6.72827 9.71605 7.4523 9.71605H17.3225C17.6734 9.71605 18.0032 9.85209 18.2508 10.0997L23.17 15.0106C23.4153 15.255 23.5555 15.594 23.5555 15.9399V27.9641Z" fill="#FF43DD"/>
<path d="M18.6981 18.916H10.9972C9.85398 18.916 8.92383 19.8457 8.92383 20.9894V25.9487C8.92383 27.0924 9.85398 28.0221 10.9972 28.0221H18.6981C19.8418 28.0221 20.7715 27.0924 20.7715 25.9487V20.9894C20.7715 19.8457 19.8418 18.916 18.6981 18.916ZM18.8826 25.9487C18.8826 26.0502 18.7996 26.1332 18.6981 26.1332H10.9972C10.8953 26.1332 10.8127 26.0502 10.8127 25.9487V20.9894C10.8127 20.8879 10.8953 20.8049 10.9972 20.8049H18.6981C18.7996 20.8049 18.8826 20.8879 18.8826 20.9894V25.9487Z" fill="#FF43DD"/>
<path d="M10.5328 16.7119C11.0544 16.7119 11.4773 16.289 11.4773 15.7675V13.5299C11.4773 13.0083 11.0544 12.5854 10.5328 12.5854C10.0113 12.5854 9.58838 13.0083 9.58838 13.5299V15.7675C9.58838 16.289 10.0113 16.7119 10.5328 16.7119Z" fill="#FF43DD"/>
<path d="M14.8478 16.7119C15.3694 16.7119 15.7922 16.289 15.7922 15.7675V13.5299C15.7922 13.0083 15.3694 12.5854 14.8478 12.5854C14.3262 12.5854 13.9033 13.0083 13.9033 13.5299V15.7675C13.9033 16.289 14.3262 16.7119 14.8478 16.7119Z" fill="#FF43DD"/>
<path d="M19.1617 16.7119C19.6838 16.7119 20.1062 16.289 20.1062 15.7675V13.5299C20.1062 13.0083 19.6838 12.5854 19.1617 12.5854C18.6397 12.5854 18.2173 13.0083 18.2173 13.5299V15.7675C18.2173 16.289 18.6397 16.7119 19.1617 16.7119Z" fill="#FF43DD"/>
<path d="M23.2584 7.67773C22.7364 7.67773 22.314 8.10061 22.314 8.62219C22.314 9.14376 22.7364 9.56664 23.2584 9.56664C23.4973 9.56664 23.6984 9.76771 23.6984 10.0061C23.6984 10.5277 24.1208 10.9506 24.6428 10.9506C25.1648 10.9506 25.5873 10.5277 25.5873 10.0061C25.5873 8.72226 24.5423 7.67773 23.2584 7.67773Z" fill="#FF43DD"/>
<path d="M23.2584 5.26025C22.7364 5.26025 22.314 5.68313 22.314 6.20471C22.314 6.72628 22.7364 7.14916 23.2584 7.14916C24.8337 7.14916 26.1158 8.43072 26.1158 10.006C26.1158 10.5276 26.5382 10.9505 27.0602 10.9505C27.5822 10.9505 28.0047 10.5276 28.0047 10.006C28.0047 7.38943 25.876 5.26025 23.2584 5.26025Z" fill="#FF43DD"/>
<path d="M23.2584 2.8335C22.7364 2.8335 22.314 3.25638 22.314 3.77795C22.314 4.29953 22.7364 4.72241 23.2584 4.72241C26.172 4.72241 28.5424 7.09277 28.5424 10.0064C28.5424 10.528 28.9648 10.9508 29.4868 10.9508C30.0089 10.9508 30.4313 10.528 30.4313 10.0064C30.4313 6.05147 27.2133 2.8335 23.2584 2.8335Z" fill="#FF43DD"/>
</svg>
