<svg width="34" height="34" viewBox="0 0 34 34" fill="none" xmlns="http://www.w3.org/2000/svg">
<ellipse cx="16.5645" cy="13.4583" rx="8.5" ry="9.20833" fill="#F3E410" fill-opacity="0.15"/>
<path d="M17.7085 8.5L13.4585 14.875H16.2918V19.125L20.5418 12.75H17.7085V8.5Z" fill="#EC7A0A"/>
<path fill-rule="evenodd" clip-rule="evenodd" d="M26.8528 13.6519C26.6378 15.4761 25.9045 17.2004 24.7399 18.6208C24.0585 19.4538 22.3266 21.831 21.9583 23.3752H12.0416C11.6733 21.8296 9.93926 19.4517 9.25784 18.6187C8.09374 17.1977 7.36121 15.4728 7.14701 13.6483C6.9359 11.8277 7.25362 9.98488 8.06217 8.34009C8.87788 6.68244 10.1466 5.28989 11.7214 4.32384C13.3093 3.3474 15.1373 2.83143 17.0013 2.8335C18.8699 2.8335 20.7003 3.35059 22.2813 4.32596C23.8556 5.29241 25.1239 6.6852 25.9391 8.34292C26.7473 9.98807 27.0645 11.8312 26.8528 13.6519ZM20.9546 21.9585H13.0446C12.7428 21.2622 12.3398 20.5645 11.9644 19.9716C11.4702 19.1926 10.9329 18.4418 10.3551 17.7227C9.36218 16.5111 8.73732 15.0404 8.55447 13.4847C8.37457 11.9343 8.64508 10.3649 9.33363 8.96413C10.0317 7.54653 11.1172 6.35584 12.4645 5.53013C13.8289 4.69128 15.3997 4.24813 17.0013 4.25017C18.6093 4.25017 20.1818 4.69571 21.5382 5.53225C22.8849 6.35817 23.97 7.54884 24.6676 8.96625C25.3558 10.3673 25.6259 11.937 25.4454 13.4875C25.2619 15.0429 24.6365 16.5131 23.6434 17.7241C23.0645 18.4423 22.5275 19.1932 22.0348 19.973C21.6593 20.5659 21.2563 21.2622 20.9546 21.9585Z" fill="#EC7A0A" stroke="#F37510"/>
<path d="M12.0415 25.5003C12.0415 25.3125 12.1161 25.1323 12.249 24.9995C12.3818 24.8666 12.562 24.792 12.7498 24.792H21.2498C21.4377 24.792 21.6179 24.8666 21.7507 24.9995C21.8835 25.1323 21.9582 25.3125 21.9582 25.5003C21.9582 25.6882 21.8835 25.8684 21.7507 26.0012C21.6179 26.134 21.4377 26.2087 21.2498 26.2087H12.7498C12.562 26.2087 12.3818 26.134 12.249 26.0012C12.1161 25.8684 12.0415 25.6882 12.0415 25.5003Z" fill="#EC7A0A" stroke="#F37510" stroke-width="0.5"/>
<path fill-rule="evenodd" clip-rule="evenodd" d="M12.0415 27.625H21.9582V29.75C21.9582 30.1257 21.8089 30.4861 21.5432 30.7517C21.2776 31.0174 20.9172 31.1667 20.5415 31.1667H13.4582C13.0824 31.1667 12.7221 31.0174 12.4564 30.7517C12.1908 30.4861 12.0415 30.1257 12.0415 29.75V27.625ZM13.4582 29.0417H20.5415V29.75H13.4582V29.0417Z" fill="#EC7A0A" stroke="#F37510" stroke-width="0.5"/>
</svg>
