<svg width="34" height="34" viewBox="0 0 34 34" fill="none" xmlns="http://www.w3.org/2000/svg">
<path d="M29.4423 3.14384C29.2373 2.93882 28.9587 2.82842 28.6748 2.83368C28.6327 2.83368 24.2116 2.9283 19.354 3.52235C16.4837 3.87457 14.0128 4.32668 12.0152 4.87342C9.3656 5.59364 7.55717 6.46631 6.48473 7.53875C5.39652 8.62696 4.4923 10.0359 3.86145 11.6235C3.24112 13.2059 2.89941 14.8829 2.84158 16.5809C2.78375 18.3683 3.03609 20.0874 3.5986 21.6908C4.20316 23.4203 5.13892 24.9291 6.37959 26.175L6.38484 26.1803C6.3901 26.1856 6.39536 26.1908 6.39536 26.1961C7.64128 27.4367 9.15532 28.3778 10.8954 28.9876C12.3779 29.5028 13.934 29.7604 15.5006 29.7499C15.6688 29.7499 15.837 29.7499 16.0053 29.7393C17.7033 29.6815 19.3803 29.3398 20.9627 28.7195C22.5503 28.0886 23.9592 27.1844 25.0474 26.0962C26.1199 25.0238 26.9925 23.2153 27.7128 20.5658C28.2595 18.5681 28.7116 16.0973 29.0638 13.2269C29.6579 8.37462 29.7525 3.95869 29.7525 3.91137C29.7578 3.62224 29.6474 3.34887 29.4423 3.14384ZM26.9663 12.9903C26.2303 19.0149 25.0211 23.1417 23.5544 24.6032C21.7618 26.3958 18.9124 27.5261 15.9369 27.626C12.9089 27.7259 10.1804 26.7954 8.20905 24.9922C8.35099 23.6569 9.73359 18.2579 22.4662 12.0914C22.9867 11.8285 23.1969 11.1924 22.9341 10.672C22.6765 10.162 22.0614 9.94649 21.5462 10.1883C17.8926 11.9599 14.8119 13.8315 12.3989 15.7608C10.4275 17.3327 8.88721 18.9466 7.80951 20.5605C7.29432 21.3175 6.87375 22.1271 6.54781 22.984C5.44383 21.2019 4.89184 19.0149 4.97069 16.6492C5.06532 13.6737 6.19559 10.8244 7.98825 9.03176C9.44446 7.57029 13.5713 6.35591 19.5959 5.61992C22.9078 5.21513 26.0095 5.0469 27.6024 4.98382C27.534 6.57671 27.3711 9.68363 26.9663 12.9903Z" fill="#00E626"/>
</svg>
