<svg width="34" height="34" viewBox="0 0 34 34" fill="none" xmlns="http://www.w3.org/2000/svg">
<path fill-rule="evenodd" clip-rule="evenodd" d="M17.0002 2.8335C9.18145 2.8335 2.8335 9.18145 2.8335 17.0002C2.8335 24.8189 9.18145 31.1668 17.0002 31.1668C24.8189 31.1668 31.1668 24.8189 31.1668 17.0002C31.1668 9.18145 24.8189 2.8335 17.0002 2.8335ZM22.1182 18.288C21.9418 21.7215 21.0608 24.7274 19.7382 26.667C18.9526 27.8183 18.0472 28.5911 17.0002 28.5911C15.9531 28.5911 15.0477 27.8183 14.2621 26.667C12.9395 24.7274 12.0586 21.7215 11.8821 18.288H22.1182ZM28.5228 18.2636C28.4404 18.279 28.3554 18.288 28.2691 18.288H24.6965C24.5265 21.8439 23.6611 25.0043 22.3964 27.2594C25.7255 25.5027 28.0978 22.1736 28.5228 18.2636ZM9.3038 18.288H5.48009C5.91153 22.1877 8.28122 25.5066 11.6039 27.2594C10.3393 25.003 9.4738 21.8426 9.3038 18.288ZM22.3964 6.74092C23.6611 8.99728 24.5265 12.1577 24.6965 15.7123H28.2691C28.3554 15.7123 28.4404 15.7213 28.5228 15.7368C28.0991 11.8268 25.7255 8.49759 22.3964 6.74092ZM11.6039 6.74092C8.28122 8.49372 5.91153 11.8126 5.48009 15.7123H9.3038C9.4738 12.1565 10.3393 8.996 11.6039 6.74092ZM17.0002 5.40925C18.0472 5.40925 18.9526 6.18198 19.7382 7.33334C21.0608 9.27289 21.9418 12.2788 22.1182 15.7123H11.8821C12.0586 12.2788 12.9395 9.27289 14.2621 7.33334C15.0477 6.18198 15.9531 5.40925 17.0002 5.40925Z" fill="#00C5C7"/>
</svg>
