<svg width="34" height="34" viewBox="0 0 34 34" fill="none" xmlns="http://www.w3.org/2000/svg">
<path d="M8.68267 27.2615C5.9943 27.0284 3.88477 24.7727 3.88477 22.0239V13.1763C3.88477 11.5363 4.65 9.99017 5.95402 8.99558L13.1048 3.54159C14.988 2.10528 17.599 2.10528 19.4821 3.54159L19.9659 3.91053C18.6745 3.78308 17.3459 4.13263 16.2596 4.96123L7.75523 11.4476C7.3042 11.7916 7.03952 12.3264 7.03952 12.8936V23.4435C7.03952 24.9471 7.67084 26.3032 8.68267 27.2615Z" fill="#CEE1F2"/>
<path d="M23.4446 28.3332H9.143C5.66394 28.3332 2.8335 25.5027 2.8335 22.0237V13.1761C2.8335 11.2206 3.76178 9.34518 5.3166 8.15925L12.4674 2.70526C14.7203 0.986918 17.8672 0.986918 20.1202 2.70526L22.393 4.43722V3.09514C22.393 2.51435 22.8638 2.04355 23.4446 2.04355C24.0253 2.04355 24.4961 2.51435 24.4961 3.09514V6.56069C24.4961 6.96045 24.2695 7.32561 23.9112 7.50306C23.5529 7.68047 23.1251 7.63935 22.8071 7.39712L18.845 4.37786C17.3427 3.23205 15.2447 3.23205 13.7428 4.3776L6.59202 9.83159C5.55552 10.6221 4.93667 11.8724 4.93667 13.1761V22.0237C4.93667 24.343 6.82363 26.23 9.143 26.23H23.4446C25.7639 26.23 27.6509 24.343 27.6509 22.0237V13.1761C27.6509 11.8564 27.039 10.6019 26.0142 9.82013C25.5524 9.4679 25.4635 8.80803 25.8158 8.34628C26.168 7.88447 26.8279 7.79567 27.2896 8.1479C28.8328 9.32483 29.7541 11.2045 29.7541 13.1761V22.0237C29.7541 25.5027 26.9236 28.3332 23.4446 28.3332Z" fill="#1428BF"/>
<path d="M15.5049 14.8726C15.5049 15.5985 14.9164 16.1871 14.1905 16.1871C13.4645 16.1871 12.876 15.5985 12.876 14.8726C12.876 14.1466 13.4645 13.5581 14.1905 13.5581C14.9164 13.5581 15.5049 14.1466 15.5049 14.8726ZM18.3968 13.5582C17.6708 13.5582 17.0823 14.1467 17.0823 14.8726C17.0823 15.5986 17.6708 16.1871 18.3968 16.1871C19.1228 16.1871 19.7113 15.5986 19.7113 14.8726C19.7113 14.1466 19.1228 13.5582 18.3968 13.5582ZM14.1905 17.7645C13.4645 17.7645 12.876 18.353 12.876 19.079C12.876 19.8049 13.4645 20.3935 14.1905 20.3935C14.9164 20.3935 15.5049 19.8049 15.5049 19.079C15.5049 18.353 14.9164 17.7645 14.1905 17.7645ZM18.3968 17.7645C17.6708 17.7645 17.0823 18.353 17.0823 19.079C17.0823 19.8049 17.6708 20.3935 18.3968 20.3935C19.1228 20.3935 19.7113 19.8049 19.7113 19.079C19.7113 18.353 19.1228 17.7645 18.3968 17.7645Z" fill="#DF5CF0"/>
</svg>
