<svg width="34" height="34" viewBox="0 0 34 34" fill="none" xmlns="http://www.w3.org/2000/svg">
<path d="M28.5336 11.7353H19.7467C19.752 11.7087 19.7573 11.6769 19.7573 11.645V10.0406C19.7573 9.74843 19.5183 9.50937 19.2261 9.50937H18.5195L22.743 5.70562C22.9608 5.50905 22.982 5.17437 22.7855 4.95655C22.5889 4.73874 22.2489 4.71749 22.0311 4.91405L16.9364 9.50937H16.8886L7.50141 1.56187C7.27828 1.37593 6.94359 1.40249 6.75234 1.62562C6.56109 1.84874 6.59297 2.18343 6.81609 2.37468L15.247 9.50937H14.7742C14.482 9.50937 14.243 9.74843 14.243 10.0406V11.645C14.243 11.6769 14.2483 11.7087 14.2536 11.7353H5.46672C4.24484 11.7353 3.24609 12.7022 3.24609 13.8922V30.4034C3.24609 31.5934 4.24484 32.5603 5.46672 32.5603H28.5336C29.7555 32.5603 30.7542 31.5934 30.7542 30.4034V13.8922C30.7542 12.7022 29.7555 11.7353 28.5336 11.7353ZM15.3055 11.645V10.5719H18.6948V11.645C18.6948 11.6769 18.7002 11.7087 18.7055 11.7353H15.2948C15.3002 11.7087 15.3055 11.6769 15.3055 11.645ZM29.6917 30.4034C29.6917 31.0091 29.1711 31.4978 28.5336 31.4978H5.46672C4.82922 31.4978 4.30859 31.0091 4.30859 30.4034V13.8922C4.30859 13.2919 4.82922 12.7978 5.46672 12.7978H28.5336C29.1711 12.7978 29.6917 13.2919 29.6917 13.8922V30.4034Z" fill="#EC7A0A" stroke="#EC7A0A" stroke-width="0.5"/>
<path d="M22.4778 14.2222H9.11156C7.5125 14.2222 6.21094 15.3856 6.21094 16.8147V27.4397C6.21094 28.8687 7.5125 30.0322 9.11156 30.0322H22.4778C24.0769 30.0322 25.3784 28.8687 25.3784 27.4397V16.8147C25.3784 15.3856 24.0769 14.2222 22.4778 14.2222ZM24.3159 27.4397C24.3159 28.2844 23.4925 28.9697 22.4778 28.9697H9.11156C8.09688 28.9697 7.27344 28.2844 7.27344 27.4397V16.8147C7.27344 15.97 8.09688 15.2847 9.11156 15.2847H22.4778C23.4925 15.2847 24.3159 15.97 24.3159 16.8147V27.4397Z" fill="#EC7A0A" stroke="#EC7A0A" stroke-width="0.5"/>
<path d="M27.668 15.2153C26.8658 15.2153 26.2124 15.8741 26.2124 16.6763C26.2124 17.4785 26.8658 18.1319 27.668 18.1319C28.4755 18.1319 29.129 17.4785 29.129 16.6763C29.129 15.8741 28.4755 15.2153 27.668 15.2153ZM27.668 17.0694C27.4502 17.0694 27.2749 16.8941 27.2749 16.6763C27.2749 16.4585 27.4502 16.2778 27.668 16.2778C27.8912 16.2778 28.0665 16.4585 28.0665 16.6763C28.0665 16.8941 27.8912 17.0694 27.668 17.0694Z" fill="#EC7A0A"/>
<path d="M29.1767 19.4121C29.1767 19.7043 28.9377 19.9434 28.6455 19.9434H26.6958C26.4036 19.9434 26.1646 19.7043 26.1646 19.4121C26.1646 19.1199 26.4036 18.8809 26.6958 18.8809H28.6455C28.9377 18.8809 29.1767 19.1199 29.1767 19.4121Z" fill="#EC7A0A"/>
<path d="M29.1767 21.0801C29.1767 21.3776 28.9377 21.6113 28.6455 21.6113H26.6958C26.4036 21.6113 26.1646 21.3776 26.1646 21.0801C26.1646 20.7879 26.4036 20.5488 26.6958 20.5488H28.6455C28.9377 20.5488 29.1767 20.7879 29.1767 21.0801Z" fill="#EC7A0A"/>
<path d="M29.1767 22.7534C29.1767 23.0456 28.9377 23.2847 28.6455 23.2847H26.6958C26.4036 23.2847 26.1646 23.0456 26.1646 22.7534C26.1646 22.4612 26.4036 22.2222 26.6958 22.2222H28.6455C28.9377 22.2222 29.1767 22.4612 29.1767 22.7534Z" fill="#EC7A0A"/>
<path d="M29.1767 24.4219C29.1767 24.7141 28.9377 24.9531 28.6455 24.9531H26.6958C26.4036 24.9531 26.1646 24.7141 26.1646 24.4219C26.1646 24.1297 26.4036 23.8906 26.6958 23.8906H28.6455C28.9377 23.8906 29.1767 24.1297 29.1767 24.4219Z" fill="#EC7A0A"/>
<path d="M29.1767 26.0952C29.1767 26.3874 28.9377 26.6265 28.6455 26.6265H26.6958C26.4036 26.6265 26.1646 26.3874 26.1646 26.0952C26.1646 25.7977 26.4036 25.564 26.6958 25.564H28.6455C28.9377 25.564 29.1767 25.7977 29.1767 26.0952Z" fill="#EC7A0A"/>
<path d="M29.1767 27.7632C29.1767 28.0554 28.9377 28.2944 28.6455 28.2944H26.6958C26.4036 28.2944 26.1646 28.0554 26.1646 27.7632C26.1646 27.471 26.4036 27.2319 26.6958 27.2319H28.6455C28.9377 27.2319 29.1767 27.471 29.1767 27.7632Z" fill="#EC7A0A"/>
<rect x="7.0835" y="14.1665" width="18.4167" height="15.5833" fill="#EB9B07" fill-opacity="0.15"/>
</svg>
