<svg width="34" height="34" viewBox="0 0 34 34" fill="none" xmlns="http://www.w3.org/2000/svg">
<path d="M11.4549 33.98C9.96738 33.98 8.75879 32.7714 8.75879 31.2839V29.9624C8.75879 29.4112 9.20371 28.9663 9.75488 28.9663H13.1615C13.7127 28.9663 14.1576 29.4112 14.1576 29.9624V31.2839C14.1576 32.7714 12.949 33.98 11.4615 33.98H11.4549ZM10.751 30.9585V31.2839C10.751 31.6757 11.0697 31.9878 11.4549 31.9878C11.84 31.9878 12.1588 31.669 12.1588 31.2839V30.9585H10.7443H10.751Z" fill="#00BBFF"/>
<path d="M22.5447 33.98C21.0572 33.98 19.8486 32.7714 19.8486 31.2839V29.9624C19.8486 29.4112 20.2936 28.9663 20.8447 28.9663H24.2514C24.8025 28.9663 25.2475 29.4112 25.2475 29.9624V31.2839C25.2475 32.7714 24.0389 33.98 22.5514 33.98H22.5447ZM21.8408 30.9585V31.2839C21.8408 31.6757 22.1596 31.9878 22.5447 31.9878C22.9299 31.9878 23.2486 31.669 23.2486 31.2839V30.9585H21.8342H21.8408Z" fill="#00BBFF"/>
<path d="M23.3616 19.5032C22.8104 19.5032 22.3655 19.0583 22.3655 18.5071V17.0794C22.3655 16.6345 22.0069 16.2759 21.562 16.2759H12.4378C11.9929 16.2759 11.6343 16.6345 11.6343 17.0794V18.5071C11.6343 19.0583 11.1894 19.5032 10.6382 19.5032C10.087 19.5032 9.64209 19.0583 9.64209 18.5071V17.0794C9.64209 15.5388 10.8972 14.2837 12.4378 14.2837H21.562C23.1026 14.2837 24.3577 15.5388 24.3577 17.0794V18.5071C24.3577 19.0583 23.9128 19.5032 23.3616 19.5032Z" fill="#00BBFF"/>
<path d="M23.9724 3.65244V10.7247H21.9802V3.65244C21.9802 2.74932 21.2431 2.01221 20.34 2.01221H13.6661C12.763 2.01221 12.0259 2.74932 12.0259 3.65244V10.7247H10.0337V3.65244C10.0271 1.64697 11.6607 0.0200195 13.6595 0.0200195H20.3333C22.3388 0.0200195 23.9657 1.64697 23.9657 3.65244H23.9724Z" fill="#00BBFF"/>
<path d="M24.6563 10.7246H18.9919C18.4407 10.7246 17.9958 11.1695 17.9958 11.7207C17.9958 12.2719 18.1087 12.2453 18.288 12.4246C18.4673 12.6039 18.7196 12.7168 18.9919 12.7168H24.6563C25.5595 12.7168 26.2966 13.4539 26.2966 14.357V27.3195C26.2966 28.2227 25.5595 28.9598 24.6563 28.9598H9.34971C8.44658 28.9598 7.70947 28.2227 7.70947 27.3195V14.357C7.70947 13.4539 8.44658 12.7168 9.34971 12.7168H15.0142C15.5653 12.7168 16.0103 12.2719 16.0103 11.7207C16.0103 11.1695 15.8974 11.1961 15.7181 11.0168C15.5388 10.8375 15.2864 10.7246 15.0142 10.7246H9.34971C7.34424 10.7246 5.71729 12.3516 5.71729 14.357V27.3195C5.71729 29.325 7.34424 30.952 9.34971 30.952H24.6563C26.6618 30.952 28.2888 29.325 28.2888 27.3195V14.357C28.2888 12.3516 26.6618 10.7246 24.6563 10.7246Z" fill="#00BBFF"/>
</svg>
