<svg width="34" height="34" viewBox="0 0 34 34" fill="none" xmlns="http://www.w3.org/2000/svg">
<path d="M30.174 26.4881C29.646 26.4881 29.2178 26.0599 29.2178 25.5319V14.7507C29.2178 14.2226 29.646 13.7944 30.174 13.7944C30.7021 13.7944 31.1303 14.2226 31.1303 14.7507V25.5319C31.1313 26.0599 30.7021 26.4881 30.174 26.4881Z" fill="#07D5CF"/>
<path d="M31.3822 12.1924L18.4654 4.68792C17.3784 4.05467 16.0259 4.05573 14.9389 4.68792L2.02107 12.1924C1.4877 12.5026 1.16895 13.0562 1.16895 13.6735C1.16895 14.2908 1.4877 14.8444 2.02107 15.1557L5.93745 17.4315V24.1384C5.93745 25.3666 6.59832 26.5088 7.66082 27.1219L13.0519 30.2297C14.1771 30.8778 15.4394 31.203 16.7016 31.203C17.9639 31.203 19.2251 30.8789 20.3513 30.2297L25.7414 27.1219C26.8049 26.5099 27.4658 25.3666 27.4658 24.1384V17.4305L31.3822 15.1557C31.9166 14.8454 32.2354 14.2919 32.2354 13.6745C32.2354 13.0572 31.9166 12.5026 31.3822 12.1924ZM25.5533 24.1373C25.5533 24.6835 25.2611 25.1913 24.7873 25.4633L19.3972 28.5711C17.7354 29.5285 15.6689 29.5285 14.0082 28.5711L8.61707 25.4633C8.14426 25.1913 7.85101 24.6835 7.85101 24.1373V18.5419L14.9389 22.6601C15.4829 22.9757 16.0928 23.134 16.7027 23.134C17.3126 23.134 17.9224 22.9767 18.4664 22.6601L25.5544 18.5419L25.5533 24.1373ZM17.5049 21.0069C17.0098 21.2948 16.3946 21.2948 15.8994 21.0069L3.27801 13.6735L15.8984 6.34011C16.3935 6.05217 17.0087 6.05217 17.5038 6.34011L30.1253 13.6724L17.5049 21.0069Z" fill="#07D5CF"/>
<path d="M30.1737 27.2332C31.1132 27.2332 31.8748 26.4716 31.8748 25.5321C31.8748 24.5926 31.1132 23.8311 30.1737 23.8311C29.2342 23.8311 28.4727 24.5926 28.4727 25.5321C28.4727 26.4716 29.2342 27.2332 30.1737 27.2332Z" fill="#07D5CF"/>
</svg>
