<svg width="34" height="34" viewBox="0 0 34 34" fill="none" xmlns="http://www.w3.org/2000/svg">
<path d="M26.5625 21.2501C26.5625 27.1184 22.8683 30.8126 17 30.8126C11.1317 30.8126 7.4375 27.1184 7.4375 21.2501C7.4375 14.9528 14.2926 6.45147 16.395 3.99245C16.4698 3.90508 16.5627 3.83494 16.6672 3.78685C16.7717 3.73877 16.8853 3.71387 17.0003 3.71387C17.1154 3.71387 17.229 3.73877 17.3335 3.78685C17.438 3.83494 17.5308 3.90508 17.6056 3.99245C19.7074 6.45147 26.5625 14.9528 26.5625 21.2501Z" fill="#37C6FF" fill-opacity="0.09" stroke="#068BF5" stroke-width="2" stroke-miterlimit="10"/>
<path d="M22.8438 21.7812C22.8438 23.0493 22.34 24.2654 21.4434 25.1621C20.5467 26.0588 19.3306 26.5625 18.0625 26.5625" stroke="#068BF5" stroke-width="1.8" stroke-linecap="round" stroke-linejoin="round"/>
</svg>
