<svg xmlns="http://www.w3.org/2000/svg" width="15" height="12" viewBox="0 0 15 12" fill="none">
  <path d="M2.21036 0.436584C2.09031 0.436551 1.97044 0.482223 1.87888 0.573784C1.69549 0.756908 1.69549 1.05414 1.87888 1.23727L12.0673 11.4257C12.1587 11.5174 12.2786 11.5634 12.3988 11.5634C12.5189 11.5634 12.6388 11.5176 12.7302 11.4262C12.9136 11.2431 12.9136 10.9458 12.7302 10.7627L2.54184 0.574308C2.45027 0.482612 2.33041 0.436618 2.21036 0.436584ZM7.30456 1.1739C6.40905 1.1739 5.54034 1.34529 4.73599 1.62949L5.59375 2.48778C6.13534 2.33495 6.70934 2.24637 7.30456 2.24637C10.774 2.24637 13.4712 5.24122 13.4712 5.99999C13.4712 6.40753 12.6988 7.4533 11.4467 8.34077L12.227 9.12103C13.64 8.09414 14.5437 6.82579 14.5437 5.99999C14.5437 4.41006 11.1922 1.1739 7.30456 1.1739ZM2.38212 2.87895C0.969148 3.90584 0.0654297 5.17419 0.0654297 5.99999C0.0654297 7.58992 3.41688 10.8261 7.30456 10.8261C8.20007 10.8261 9.06878 10.6547 9.87313 10.3705L9.01537 9.5122C8.47378 9.66503 7.89978 9.75361 7.30456 9.75361C3.83514 9.75361 1.13789 6.75876 1.13789 5.99999C1.13789 5.59245 1.91028 4.54668 3.16238 3.65921L2.38212 2.87895ZM7.30456 3.05071C6.96137 3.05071 6.63148 3.10993 6.32583 3.21986L10.0847 6.97872C10.1946 6.67307 10.2538 6.34318 10.2538 5.99999C10.2538 4.36985 8.9347 3.05071 7.30456 3.05071ZM4.52443 5.02126C4.4145 5.32691 4.35528 5.6568 4.35528 5.99999C4.35528 7.63014 5.67442 8.94927 7.30456 8.94927C7.64775 8.94927 7.97764 8.89005 8.28329 8.78012L4.52443 5.02126Z" fill="white"/>
</svg>