<svg xmlns="http://www.w3.org/2000/svg" width="15" height="12" viewBox="0 0 15 12" fill="none">
  <path d="M7.30456 1.1739C3.41688 1.1739 0.0654297 4.41006 0.0654297 5.99999C0.0654297 7.58992 3.41688 10.8261 7.30456 10.8261C11.1922 10.8261 14.5437 7.58992 14.5437 5.99999C14.5437 4.41006 11.1922 1.1739 7.30456 1.1739ZM7.30456 2.24637C10.774 2.24637 13.4712 5.24122 13.4712 5.99999C13.4712 6.75876 10.774 9.75361 7.30456 9.75361C3.83514 9.75361 1.13789 6.75876 1.13789 5.99999C1.13789 5.24122 3.83514 2.24637 7.30456 2.24637ZM7.30456 3.05071C5.67442 3.05071 4.35528 4.36985 4.35528 5.99999C4.35528 7.63014 5.67442 8.94927 7.30456 8.94927C8.9347 8.94927 10.2538 7.63014 10.2538 5.99999C10.2538 4.36985 8.9347 3.05071 7.30456 3.05071Z" fill="white"/>
</svg>