<svg width="391" height="102" viewBox="0 0 391 102" fill="none" xmlns="http://www.w3.org/2000/svg">
<mask id="mask0_0_1" style="mask-type:luminance" maskUnits="userSpaceOnUse" x="0" y="68" width="75" height="24">
<path d="M0 68H74.6667V92H0V68Z" fill="white"/>
</mask>
<g mask="url(#mask0_0_1)">
<mask id="mask1_0_1" style="mask-type:luminance" maskUnits="userSpaceOnUse" x="0" y="68" width="75" height="24">
<path d="M74.328 68.724L74.2498 91.2708L0.432129 91.0208L0.510254 68.4688L74.328 68.724Z" fill="white"/>
</mask>
<g mask="url(#mask1_0_1)">
<mask id="mask2_0_1" style="mask-type:luminance" maskUnits="userSpaceOnUse" x="0" y="68" width="75" height="24">
<path d="M74.2865 79.9948C74.2761 82.9844 73.0782 85.849 70.9584 87.9584C68.8386 90.0677 65.9636 91.2448 62.974 91.2344L11.7188 91.0573C8.72924 91.0521 5.86465 89.8542 3.76049 87.7292C1.65111 85.6094 0.474028 82.7344 0.484444 79.7448C0.494861 76.7552 1.69278 73.8907 3.81257 71.7865C5.93236 69.6771 8.80736 68.5 11.7969 68.5104L63.0522 68.6823C66.0417 68.6927 68.9063 69.8907 71.0105 72.0104C73.1199 74.1354 74.2969 77.0052 74.2865 79.9948Z" fill="white"/>
</mask>
<g mask="url(#mask2_0_1)">
<mask id="mask3_0_1" style="mask-type:luminance" maskUnits="userSpaceOnUse" x="0" y="68" width="75" height="24">
<path d="M74.6667 68H0V92H74.6667V68Z" fill="white"/>
</mask>
<g mask="url(#mask3_0_1)">
<mask id="mask4_0_1" style="mask-type:luminance" maskUnits="userSpaceOnUse" x="0" y="68" width="75" height="24">
<path d="M0.265625 68.3177H74.5052V91.3594H0.265625V68.3177Z" fill="white"/>
</mask>
<g mask="url(#mask4_0_1)">
<mask id="mask5_0_1" style="mask-type:luminance" maskUnits="userSpaceOnUse" x="0" y="68" width="75" height="24">
<path d="M74.328 68.724L74.2498 91.2708L0.432129 91.0208L0.510253 68.4688L74.328 68.724Z" fill="white"/>
</mask>
<g mask="url(#mask5_0_1)">
<mask id="mask6_0_1" style="mask-type:luminance" maskUnits="userSpaceOnUse" x="0" y="68" width="75" height="24">
<path d="M74.2865 79.9948C74.2761 82.9844 73.0782 85.849 70.9584 87.9584C68.8386 90.0677 65.9636 91.2448 62.974 91.2344L11.7188 91.0573C8.72923 91.0521 5.86465 89.8542 3.76049 87.7292C1.65111 85.6094 0.474028 82.7344 0.484444 79.7448C0.494861 76.7552 1.69278 73.8907 3.81257 71.7865C5.93236 69.6771 8.80736 68.5 11.7969 68.5104L63.0522 68.6823C66.0417 68.6927 68.9063 69.8907 71.0105 72.0104C73.1199 74.1354 74.2969 77.0052 74.2865 79.9948Z" fill="white"/>
</mask>
<g mask="url(#mask6_0_1)">
<path d="M74.328 68.724L74.2498 91.2708L0.432129 91.0208L0.510253 68.4688L74.328 68.724Z" fill="#F4F4F4"/>
</g>
</g>
</g>
</g>
</g>
</g>
</g>
<mask id="mask7_0_1" style="mask-type:luminance" maskUnits="userSpaceOnUse" x="0" y="0" width="75" height="24">
<path d="M0 0H74.6667V24H0V0Z" fill="white"/>
</mask>
<g mask="url(#mask7_0_1)">
<mask id="mask8_0_1" style="mask-type:luminance" maskUnits="userSpaceOnUse" x="0" y="0" width="75" height="24">
<path d="M74.328 1.04688L74.2498 23.599L0.432129 23.349L0.510254 0.796875L74.328 1.04688Z" fill="white"/>
</mask>
<g mask="url(#mask8_0_1)">
<mask id="mask9_0_1" style="mask-type:luminance" maskUnits="userSpaceOnUse" x="0" y="0" width="75" height="24">
<path d="M74.2865 12.3229C74.2761 15.3125 73.0782 18.1771 70.9584 20.2813C68.8386 22.3906 65.9636 23.5677 62.974 23.5573L11.7188 23.3854C8.72924 23.375 5.86465 22.1771 3.76049 20.0573C1.65111 17.9323 0.474028 15.0625 0.484444 12.0729C0.494861 9.08335 1.69278 6.21877 3.81257 4.10939C5.93236 2.00523 8.80736 0.822935 11.7969 0.833351L63.0522 1.01043C66.0417 1.02085 68.9063 2.21877 71.0105 4.33856C73.1199 6.45835 74.2969 9.33335 74.2865 12.3229Z" fill="white"/>
</mask>
<g mask="url(#mask9_0_1)">
<mask id="mask10_0_1" style="mask-type:luminance" maskUnits="userSpaceOnUse" x="0" y="0" width="75" height="24">
<path d="M74.6667 0H0V24H74.6667V0Z" fill="white"/>
</mask>
<g mask="url(#mask10_0_1)">
<mask id="mask11_0_1" style="mask-type:luminance" maskUnits="userSpaceOnUse" x="0" y="0" width="75" height="24">
<path d="M0.265625 0.802094H74.5052V23.8386H0.265625V0.802094Z" fill="white"/>
</mask>
<g mask="url(#mask11_0_1)">
<mask id="mask12_0_1" style="mask-type:luminance" maskUnits="userSpaceOnUse" x="0" y="0" width="75" height="24">
<path d="M74.328 1.04688L74.2498 23.599L0.432129 23.349L0.510253 0.796875L74.328 1.04688Z" fill="white"/>
</mask>
<g mask="url(#mask12_0_1)">
<mask id="mask13_0_1" style="mask-type:luminance" maskUnits="userSpaceOnUse" x="0" y="0" width="75" height="24">
<path d="M74.2865 12.3229C74.2761 15.3125 73.0782 18.1771 70.9584 20.2813C68.8386 22.3906 65.9636 23.5677 62.974 23.5573L11.7188 23.3854C8.72923 23.375 5.86465 22.1771 3.76049 20.0573C1.65111 17.9323 0.474028 15.0625 0.484444 12.0729C0.494861 9.08335 1.69278 6.21877 3.81257 4.10939C5.93236 2.00523 8.80736 0.822935 11.7969 0.833351L63.0522 1.01043C66.0417 1.02085 68.9063 2.21877 71.0105 4.33856C73.1199 6.45835 74.2969 9.33335 74.2865 12.3229Z" fill="white"/>
</mask>
<g mask="url(#mask13_0_1)">
<path d="M74.328 1.04688L74.2498 23.599L0.432129 23.349L0.510253 0.796875L74.328 1.04688Z" fill="#F4F4F4"/>
</g>
</g>
</g>
</g>
</g>
</g>
</g>
<mask id="mask14_0_1" style="mask-type:luminance" maskUnits="userSpaceOnUse" x="0" y="33" width="96" height="26">
<path d="M0 33.3333H96V58.6667H0V33.3333Z" fill="white"/>
</mask>
<g mask="url(#mask14_0_1)">
<mask id="mask15_0_1" style="mask-type:luminance" maskUnits="userSpaceOnUse" x="0" y="34" width="97" height="24">
<path d="M96.0363 34.9219L95.9634 57.474L0.385254 57.1511L0.463379 34.599L96.0363 34.9219Z" fill="white"/>
</mask>
<g mask="url(#mask15_0_1)">
<mask id="mask16_0_1" style="mask-type:luminance" maskUnits="userSpaceOnUse" x="0" y="34" width="96" height="24">
<path d="M95.9999 46.1979C95.9895 49.1875 94.7916 52.0521 92.6718 54.1615C90.5468 56.2657 87.677 57.4427 84.6874 57.4375L11.703 57.1875C8.71345 57.1771 5.84886 55.9792 3.73949 53.8594C1.63011 51.7344 0.453031 48.8646 0.463447 45.875C0.473865 42.8854 1.67178 40.0209 3.79157 37.9115C5.91657 35.8073 8.78637 34.625 11.7759 34.6354L84.7603 34.8854C87.7551 34.8959 90.6145 36.0938 92.7239 38.2136C94.8332 40.3386 96.0103 43.2084 95.9999 46.1979Z" fill="white"/>
</mask>
<g mask="url(#mask16_0_1)">
<mask id="mask17_0_1" style="mask-type:luminance" maskUnits="userSpaceOnUse" x="0" y="33" width="96" height="26">
<path d="M96 33.3334H0V58.6667H96V33.3334Z" fill="white"/>
</mask>
<g mask="url(#mask17_0_1)">
<mask id="mask18_0_1" style="mask-type:luminance" maskUnits="userSpaceOnUse" x="0" y="34" width="96" height="24">
<path d="M0.265625 34.4011H96V57.7604H0.265625V34.4011Z" fill="white"/>
</mask>
<g mask="url(#mask18_0_1)">
<mask id="mask19_0_1" style="mask-type:luminance" maskUnits="userSpaceOnUse" x="0" y="34" width="97" height="24">
<path d="M96.0363 34.9219L95.9634 57.474L0.385254 57.1511L0.463379 34.599L96.0363 34.9219Z" fill="white"/>
</mask>
<g mask="url(#mask19_0_1)">
<mask id="mask20_0_1" style="mask-type:luminance" maskUnits="userSpaceOnUse" x="0" y="34" width="96" height="24">
<path d="M95.9999 46.1979C95.9895 49.1875 94.7916 52.0521 92.6718 54.1615C90.5468 56.2657 87.677 57.4427 84.6874 57.4375L11.703 57.1875C8.71345 57.1771 5.84887 55.9792 3.73949 53.8594C1.63011 51.7344 0.453031 48.8646 0.463447 45.875C0.473865 42.8854 1.67178 40.0209 3.79157 37.9115C5.91657 35.8073 8.78637 34.625 11.7759 34.6354L84.7603 34.8854C87.7551 34.8959 90.6145 36.0938 92.7239 38.2136C94.8332 40.3386 96.0103 43.2084 95.9999 46.1979Z" fill="white"/>
</mask>
<g mask="url(#mask20_0_1)">
<path d="M96.0363 34.9219L95.9634 57.474L0.385254 57.1511L0.463379 34.599L96.0363 34.9219Z" fill="#F4F4F4"/>
</g>
</g>
</g>
</g>
</g>
</g>
</g>
<path d="M135.221 10.7708H167.346C175.023 10.7708 181.809 12.2396 187.7 15.1666C193.601 18.0989 198.184 22.2239 201.45 27.5416C204.71 32.8646 206.346 39.0573 206.346 46.125C206.346 53.2083 204.71 59.4114 201.45 64.7291C198.184 70.0521 193.601 74.1771 187.7 77.1041C181.809 80.0364 175.023 81.5 167.346 81.5H135.221V10.7708ZM166.533 68.0625C173.601 68.0625 179.242 66.0937 183.45 62.1458C187.669 58.2031 189.783 52.8646 189.783 46.125C189.783 39.3906 187.669 34.0573 183.45 30.125C179.242 26.1823 173.601 24.2083 166.533 24.2083H151.575V68.0625H166.533Z" fill="#F4F4F4"/>
<path d="M243.428 10.7708C249.689 10.7708 255.126 11.8229 259.741 13.9166C264.366 16 267.918 18.9687 270.408 22.8125C272.908 26.6458 274.158 31.1875 274.158 36.4375C274.158 41.6198 272.908 46.1458 270.408 50.0208C267.918 53.8958 264.366 56.8646 259.741 58.9166C255.126 60.9739 249.689 62 243.428 62H229.178V81.5H212.824V10.7708H243.428ZM242.512 48.6666C247.439 48.6666 251.184 47.6041 253.741 45.4791C256.293 43.3541 257.574 40.3437 257.574 36.4375C257.574 32.4687 256.293 29.4166 253.741 27.2916C251.184 25.1666 247.439 24.1041 242.512 24.1041H229.178V48.6666H242.512Z" fill="#F4F4F4"/>
<path d="M301.742 26.3333C310.159 26.3333 316.623 28.3437 321.138 32.3541C325.649 36.3541 327.909 42.3958 327.909 50.4791V81.5H313.159V74.7291C310.185 79.7864 304.659 82.3125 296.576 82.3125C292.409 82.3125 288.789 81.6041 285.722 80.1875C282.649 78.7708 280.305 76.8229 278.68 74.3333C277.065 71.8333 276.263 69 276.263 65.8333C276.263 60.7812 278.164 56.8073 281.972 53.9166C285.789 51.0156 291.669 49.5625 299.617 49.5625H312.138C312.138 46.1354 311.097 43.4948 309.013 41.6458C306.93 39.7864 303.794 38.8541 299.617 38.8541C296.711 38.8541 293.867 39.3125 291.076 40.2291C288.284 41.1354 285.909 42.3646 283.951 43.9166L278.284 32.8958C281.253 30.8125 284.81 29.2031 288.951 28.0625C293.086 26.9114 297.352 26.3333 301.742 26.3333ZM300.513 71.7083C303.206 71.7083 305.597 71.0833 307.68 69.8333C309.774 68.5833 311.263 66.7448 312.138 64.3125V58.7708H301.326C294.867 58.7708 291.638 60.8906 291.638 65.125C291.638 67.1562 292.43 68.7604 294.013 69.9375C295.597 71.1198 297.763 71.7083 300.513 71.7083Z" fill="#F4F4F4"/>
<path d="M390.248 27.1458L365.706 84.8333C363.206 91.0937 360.113 95.5052 356.436 98.0625C352.769 100.63 348.342 101.917 343.165 101.917C340.331 101.917 337.529 101.479 334.769 100.604C332.019 99.7291 329.758 98.5104 327.998 96.9583L333.769 85.75C334.977 86.8177 336.373 87.6562 337.956 88.2708C339.54 88.8802 341.107 89.1875 342.665 89.1875C344.816 89.1875 346.566 88.6562 347.915 87.6041C349.258 86.5625 350.477 84.8333 351.561 82.4166L351.748 81.8958L328.206 27.1458H344.477L359.727 64.0208L375.102 27.1458H390.248Z" fill="#F4F4F4"/>
</svg>
