<svg xmlns="http://www.w3.org/2000/svg" width="32" height="32" viewBox="0 0 32 32" fill="none">
  <path d="M15.6954 8.68572V12.3429C15.6954 14.1922 14.1923 15.6952 12.343 15.6952H8.68588C6.83658 15.6952 5.3335 14.1922 5.3335 12.3429V8.68572C5.3335 6.83643 6.83658 5.33334 8.68588 5.33334H12.343C14.1923 5.33334 15.6954 6.83643 15.6954 8.68572ZM23.3144 5.33334H19.6573C17.808 5.33334 16.3049 6.83643 16.3049 8.68572V12.3429C16.3049 14.1922 17.808 15.6952 19.6573 15.6952H23.3144C25.1637 15.6952 26.6668 14.1922 26.6668 12.3429V8.68572C26.6668 6.83643 25.1637 5.33334 23.3144 5.33334ZM12.343 16.3048H8.68588C6.83658 16.3048 5.3335 17.8079 5.3335 19.6572V23.3143C5.3335 25.1636 6.83658 26.6667 8.68588 26.6667H12.343C14.1923 26.6667 15.6954 25.1636 15.6954 23.3143V19.6572C15.6954 17.8079 14.1923 16.3048 12.343 16.3048ZM23.3144 16.3048H19.6573C17.808 16.3048 16.3049 17.8079 16.3049 19.6572V23.3143C16.3049 25.1636 17.808 26.6667 19.6573 26.6667H23.3144C25.1637 26.6667 26.6668 25.1636 26.6668 23.3143V19.6572C26.6668 17.8079 25.1637 16.3048 23.3144 16.3048Z" fill="white"/>
</svg>