<svg xmlns="http://www.w3.org/2000/svg" width="34" height="34" viewBox="0 0 34 34" fill="none">
  <path d="M16.96 11.3467C15.548 11.3467 14.4 12.4947 14.4 13.9067C14.4 15.3186 15.548 16.4667 16.96 16.4667C18.372 16.4667 19.52 15.3186 19.52 13.9067C19.52 12.4947 18.372 11.3467 16.96 11.3467ZM28.0534 9.35554V18.4578C28.0534 20.1838 26.6505 21.5867 24.9245 21.5867H8.99559C7.26958 21.5867 5.8667 20.1838 5.8667 18.4578V9.35554C5.8667 7.62953 7.26958 6.22665 8.99559 6.22665H24.9245C26.6505 6.22665 28.0534 7.62953 28.0534 9.35554ZM12.1245 10.4933C12.1245 10.0223 11.7422 9.63999 11.2711 9.63999H10.1334C9.66233 9.63999 9.28003 10.0223 9.28003 10.4933C9.28003 10.9644 9.66233 11.3467 10.1334 11.3467H11.2711C11.7422 11.3467 12.1245 10.9644 12.1245 10.4933ZM21.2267 13.9067C21.2267 11.5537 19.313 9.63999 16.96 9.63999C14.6071 9.63999 12.6934 11.5537 12.6934 13.9067C12.6934 16.2596 14.6071 18.1733 16.96 18.1733C19.313 18.1733 21.2267 16.2596 21.2267 13.9067ZM24.64 17.32C24.64 16.8489 24.2577 16.4667 23.7867 16.4667H22.6489C22.1779 16.4667 21.7956 16.8489 21.7956 17.32C21.7956 17.791 22.1779 18.1733 22.6489 18.1733H23.7867C24.2577 18.1733 24.64 17.791 24.64 17.32Z" fill="white"/>
  <path d="M7.25488 24.7497C7.01025 24.5062 6.93744 24.1387 7.06942 23.8201C7.2014 23.5016 7.51315 23.2922 7.8579 23.2922H26.0623C26.5334 23.2922 26.9157 23.6745 26.9157 24.1455C26.9157 24.6166 26.5334 24.9989 26.0623 24.9989H9.91728L11.8743 26.9558C12.2076 27.2892 12.2076 27.8297 11.8743 28.163C11.7081 28.3303 11.4897 28.4133 11.2712 28.4133C11.0528 28.4133 10.8343 28.3291 10.6682 28.163L7.25488 24.7497Z" fill="white"/>
</svg>