<svg xmlns="http://www.w3.org/2000/svg" width="33" height="33" viewBox="0 0 33 33" fill="none">
  <path d="M7.44287 19.268H15.9062V27.96H9.04404C8.16568 27.96 7.44287 27.2372 7.44287 26.3589V19.268Z" fill="white"/>
  <path d="M25.7421 19.268V26.3589C25.7421 27.2372 25.0193 27.96 24.1409 27.96H17.2788V19.268H25.7421Z" fill="white"/>
  <path d="M5.61328 14.007V16.2944C5.61328 17.1727 6.33609 17.8955 7.21445 17.8955H7.44318H15.9065V16.5231V12.4058H7.21445C6.33609 12.4058 5.61328 13.1286 5.61328 14.007Z" fill="white"/>
  <path d="M25.9708 12.4058H17.2788V16.5231V17.8955H25.7421H25.9708C26.8492 17.8955 27.572 17.1727 27.572 16.2944V14.007C27.572 13.1286 26.8492 12.4058 25.9708 12.4058Z" fill="white"/>
  <path d="M16.5927 13.3611C16.3932 13.3611 16.2029 13.2741 16.0739 13.1232C15.9431 12.9722 15.8854 12.7718 15.9138 12.5742C16.2523 10.2868 18.0392 5.96002 22.3834 5.96002C24.863 5.96094 25.7422 7.30043 25.7422 8.44778C25.7422 10.4872 22.9031 13.3611 16.5927 13.3611ZM22.3834 7.33336C19.1061 7.33336 17.8617 10.4488 17.4491 11.9685C20.0348 11.8477 21.6652 11.1935 22.6039 10.6363C23.9059 9.8632 24.3698 8.99858 24.3698 8.44686C24.3698 7.62523 23.3441 7.33336 22.3834 7.33336Z" fill="white"/>
  <path d="M16.5934 13.3611C10.2829 13.3611 7.44385 10.4872 7.44385 8.44778C7.44385 7.30043 8.32403 5.96094 10.8035 5.96094C15.1468 5.96094 16.9337 10.2877 17.2723 12.5751C17.3006 12.7728 17.243 12.9731 17.1121 13.1241C16.9831 13.2741 16.7928 13.3611 16.5934 13.3611ZM10.8035 7.33336C9.84285 7.33336 8.81627 7.62615 8.81627 8.44778C8.81627 9.61617 10.8594 11.7453 15.7361 11.9694C15.3243 10.4488 14.08 7.33336 10.8035 7.33336Z" fill="white"/>
</svg>