<svg xmlns="http://www.w3.org/2000/svg" width="34" height="34" viewBox="0 0 34 34" fill="none">
  <path d="M8.73816 7.76068C8.89292 6.67408 9.82368 5.8667 10.9222 5.8667H21.996C22.7861 5.8667 23.5329 6.18056 24.0956 6.74334C24.5935 7.24119 24.8965 7.87973 24.9615 8.57239H9.54987C9.10613 8.57239 8.73816 8.20441 8.73816 7.76068ZM28.2191 13.1721V18.5834C28.2191 20.2274 26.8868 21.5597 25.2429 21.5597H10.091C8.44703 21.5597 7.11475 20.2274 7.11475 18.5834V9.52804C7.11475 9.22716 7.48705 9.08971 7.68078 9.32132C8.12776 9.85597 8.79877 10.1958 9.54987 10.1958H25.2429C26.8868 10.1958 28.2191 11.5281 28.2191 13.1721ZM24.1606 16.4189C24.1606 15.8215 23.6757 15.3366 23.0783 15.3366C22.4809 15.3366 21.996 15.8215 21.996 16.4189C21.996 17.0163 22.4809 17.5012 23.0783 17.5012C23.6757 17.5012 24.1606 17.0163 24.1606 16.4189Z" fill="white"/>
  <path d="M27.2593 24.5684C27.492 24.3368 27.5613 23.9873 27.4357 23.6842C27.3102 23.3812 27.0136 23.182 26.6857 23.182H9.36931C8.92125 23.182 8.55761 23.5457 8.55761 23.9938C8.55761 24.4418 8.92125 24.8055 9.36931 24.8055H24.7268L22.8653 26.667C22.5482 26.9841 22.5482 27.4982 22.8653 27.8153C23.0233 27.9744 23.2311 28.0534 23.4389 28.0534C23.6467 28.0534 23.8545 27.9733 24.0125 27.8153L27.2593 24.5684Z" fill="white"/>
</svg>