<svg xmlns="http://www.w3.org/2000/svg" width="24" height="25" viewBox="0 0 24 25" fill="none">
  <path d="M10.9222 16.4779C10.9919 16.5476 11.0472 16.6303 11.0849 16.7213C11.1227 16.8124 11.1421 16.91 11.1421 17.0085C11.1421 17.1071 11.1227 17.2047 11.0849 17.2957C11.0472 17.3868 10.9919 17.4695 10.9222 17.5391L7.92216 20.5392C7.8525 20.6089 7.76978 20.6642 7.67874 20.7019C7.58769 20.7397 7.49009 20.7591 7.39153 20.7591C7.29297 20.7591 7.19537 20.7397 7.10433 20.7019C7.01328 20.6642 6.93056 20.6089 6.8609 20.5392L3.86091 17.5391C3.79122 17.4695 3.73595 17.3867 3.69824 17.2957C3.66052 17.2047 3.64111 17.1071 3.64111 17.0085C3.64111 16.91 3.66052 16.8124 3.69824 16.7214C3.73595 16.6303 3.79122 16.5476 3.86091 16.4779C4.00164 16.3372 4.19251 16.2581 4.39153 16.2581C4.49008 16.2581 4.58766 16.2775 4.6787 16.3152C4.76975 16.3529 4.85247 16.4082 4.92216 16.4779L6.64153 18.1982V5.00852C6.64153 4.80961 6.72055 4.61885 6.8612 4.47819C7.00185 4.33754 7.19262 4.25852 7.39153 4.25852C7.59044 4.25852 7.78121 4.33754 7.92186 4.47819C8.06251 4.61885 8.14153 4.80961 8.14153 5.00852V18.1982L9.8609 16.4779C9.93056 16.4082 10.0133 16.3528 10.1043 16.3151C10.1954 16.2774 10.293 16.2579 10.3915 16.2579C10.4901 16.2579 10.5877 16.2774 10.6787 16.3151C10.7698 16.3528 10.8525 16.4082 10.9222 16.4779ZM19.9222 7.4779L16.9222 4.4779C16.8525 4.40817 16.7698 4.35285 16.6787 4.3151C16.5877 4.27736 16.4901 4.25793 16.3915 4.25793C16.293 4.25793 16.1954 4.27736 16.1043 4.3151C16.0133 4.35285 15.9306 4.40817 15.8609 4.4779L12.8609 7.4779C12.7202 7.61863 12.6411 7.8095 12.6411 8.00852C12.6411 8.20755 12.7202 8.39842 12.8609 8.53915C13.0016 8.67988 13.1925 8.75894 13.3915 8.75894C13.5906 8.75894 13.7814 8.67988 13.9222 8.53915L15.6415 6.81884V20.0085C15.6415 20.2074 15.7205 20.3982 15.8612 20.5389C16.0019 20.6795 16.1926 20.7585 16.3915 20.7585C16.5904 20.7585 16.7812 20.6795 16.9219 20.5389C17.0625 20.3982 17.1415 20.2074 17.1415 20.0085V6.81884L18.8609 8.53915C19.0016 8.67988 19.1925 8.75894 19.3915 8.75894C19.5906 8.75894 19.7814 8.67988 19.9222 8.53915C20.0629 8.39842 20.1419 8.20755 20.1419 8.00852C20.1419 7.8095 20.0629 7.61863 19.9222 7.4779Z" fill="#1B1B1D"/>
</svg>