<svg width="48" height="48" viewBox="0 0 48 48" fill="none" xmlns="http://www.w3.org/2000/svg">
<rect width="48" height="48" rx="24" fill="#FFF0D3"/>
<path d="M26.6665 10.9334C25.8043 10.7574 24.9154 10.6685 23.9998 10.6667C16.6358 10.6667 10.6665 16.636 10.6665 24C10.6665 31.364 16.6358 37.3334 23.9998 37.3334C31.3638 37.3334 37.3332 31.364 37.3332 24C37.3314 23.0845 37.2425 22.1956 37.0665 21.3334" stroke="black" stroke-width="2" stroke-linecap="round"/>
<path d="M24.0002 20C22.5268 20 21.3335 20.896 21.3335 22C21.3335 23.104 22.5268 24 24.0002 24C25.4735 24 26.6668 24.896 26.6668 26C26.6668 27.104 25.4735 28 24.0002 28M24.0002 20C25.1602 20 26.1495 20.556 26.5148 21.3334M24.0002 20V18.6667M24.0002 28C22.8402 28 21.8508 27.444 21.4855 26.6667M24.0002 28V29.3334" stroke="black" stroke-width="2" stroke-linecap="round"/>
<path d="M30.6641 17.336L36.2321 11.7653M37.3307 16.64L37.1734 12.52C37.1734 11.548 36.5934 10.9427 35.5361 10.8667L31.3707 10.6707" stroke="black" stroke-width="2" stroke-linecap="round" stroke-linejoin="round"/>
</svg>
